# Blender v2.73 (sub 0) OBJ File: 'cronos_new.blend'
# www.blender.org
mtllib cronos.mtl
o Cube
v 1.000000 -1.000000 -1.000000
v 1.000000 -1.000000 1.000000
v -1.000000 -1.000000 1.000000
v -1.000000 -1.000000 -1.000000
v 1.000000 1.000000 -0.999999
v 0.999999 1.000000 1.000001
v -1.000000 1.000000 1.000000
v -1.000000 1.000000 -1.000000
v 1.914394 1.169126 -0.388811
v 1.914394 1.169126 0.388812
v 1.914394 1.946749 -0.388810
v 1.914394 1.946749 0.388812
v 0.354665 1.483213 -1.852559
v -0.384695 1.483213 -1.852560
v 0.354665 2.222573 -1.852559
v -0.384695 2.222573 -1.852559
v 1.139312 1.407247 1.378376
v 0.224085 1.407247 1.378376
v 1.139312 2.322474 1.378377
v 0.224085 2.322474 1.378376
v -0.244719 2.107422 -0.638777
v -0.244720 2.107422 -0.164054
v -0.719442 2.107422 -0.164054
v -0.719442 2.107422 -0.638777
v -1.986461 1.633966 0.434887
v -1.986461 1.633966 -0.249923
v -1.986461 2.318776 0.434887
v -1.986461 2.318776 -0.249923
v 1.689480 1.464887 -0.869763
v 1.689480 1.903601 -0.869763
v 1.392073 2.093601 -1.434593
v 1.392073 2.462024 -1.434592
v 0.726607 0.255420 1.602286
v -0.135583 0.255420 1.602286
v 0.786664 1.293172 1.765402
v 0.392114 1.293172 1.765402
v 2.142745 0.983468 1.111402
v 2.142745 1.548057 1.111403
v 2.400873 1.595801 0.938867
v 2.400873 1.815319 0.938867
v 0.591581 0.454380 1.943879
v 0.139088 0.454380 1.943879
v 0.623099 0.999011 2.029486
v 0.416033 0.999011 2.029486
v 1.236472 -0.187130 1.519745
v 1.236472 0.817243 1.519745
v 1.810344 0.808941 1.575690
v 1.810343 1.092470 1.575690
v 1.634113 0.273047 -1.484745
v 1.497600 0.968460 -1.744008
v 1.843784 1.022620 -1.445140
v 1.753343 1.213812 -1.616904
v 1.446636 2.227651 -0.537196
v 1.446636 2.227651 0.304771
v 0.922630 2.693857 -0.385127
v 0.922630 2.693857 -0.185276
v 0.284001 1.913748 0.805689
v -0.345371 1.913748 0.805689
v -0.107695 2.262239 0.439377
v -0.257083 2.262239 0.439377
v 0.764695 1.922774 1.894093
v 0.245827 1.922774 1.894093
v 0.764695 2.441643 1.894093
v 0.245827 2.441643 1.894093
v 0.716945 1.924874 -0.854755
v -0.294520 1.924874 -0.854756
v 0.489917 2.642508 -1.285923
v -0.082679 2.642508 -1.285923
v -1.621960 0.813453 1.179019
v -1.621960 1.406703 1.179019
v -1.914569 1.537707 1.068439
v -1.914569 1.854931 1.068439
v -1.622292 0.664542 -1.011978
v -1.622292 1.411617 -1.011978
v -1.990773 1.576590 -0.803633
v -1.990773 1.976067 -0.803633
v -1.430097 -0.163549 1.455918
v -1.430097 1.010116 1.455918
v -0.711764 1.249102 1.677962
v -0.711764 1.786187 1.677962
v -1.065863 0.244669 -1.654363
v -1.065863 1.048011 -1.654363
v -0.897612 1.163205 -1.996811
v -0.897612 1.617981 -1.996811
v 1.605326 -0.122700 -0.331995
v 1.605326 -0.122700 0.495459
v 1.983636 0.774725 -0.079129
v 1.983636 0.774725 0.242594
v -0.996215 1.778882 0.527824
v -0.996215 1.778882 -0.691291
v -1.597520 2.699980 0.300584
v -1.597520 2.699980 -0.351304
v 0.892008 1.561326 0.995461
v -0.284594 1.561326 0.995460
v 0.973966 2.339339 1.218060
v 0.435537 2.339339 1.218060
vn 0.000000 -1.000000 0.000000
vn -0.969400 0.245600 -0.000000
vn -0.719300 0.694700 -0.000000
vn -0.499600 0.632000 -0.592500
vn -0.352600 0.112700 -0.929000
vn 0.944300 0.113000 -0.309100
vn 1.000000 0.000000 0.000000
vn 0.813200 -0.447600 -0.372000
vn 0.555700 -0.000000 -0.831400
vn 0.850400 -0.224400 -0.475900
vn 0.000000 0.000000 -1.000000
vn 0.477800 -0.388800 -0.787700
vn 0.201000 0.277200 -0.939500
vn 0.000000 -0.324700 -0.945800
vn 0.000000 0.974300 -0.225100
vn 0.337000 -0.311100 0.888600
vn 0.938400 0.000000 -0.345500
vn 0.752300 -0.144600 0.642800
vn 0.000000 1.000000 0.000000
vn 0.778300 0.542700 -0.315900
vn 0.000000 0.310100 -0.950700
vn 0.032100 0.342300 -0.939000
vn -1.000000 0.000000 -0.000000
vn -0.922400 -0.383400 0.046900
vn -0.938800 -0.331300 0.094500
vn -0.936500 -0.350700 -0.000000
vn 0.884800 0.000000 -0.465900
vn -0.618000 0.371700 0.692800
vn 0.373700 0.000000 -0.927500
vn -0.185600 -0.000000 0.982600
vn 0.897900 -0.118600 0.424000
vn -0.819600 0.344900 0.457500
vn 0.000000 0.959200 0.282700
vn -0.000000 -0.432500 0.901600
vn 0.555700 -0.000000 0.831400
vn -0.406900 0.739300 0.536500
vn 0.749100 0.000000 -0.662500
vn -0.419300 0.779800 0.465000
vn 0.000000 -0.155300 0.987900
vn -0.819400 0.344600 0.458100
vn 0.000000 0.668000 0.744100
vn -0.000000 -0.864100 0.503300
vn -0.097000 -0.000000 0.995300
vn 0.789700 -0.476700 0.386200
vn 0.813100 -0.000000 0.582100
vn -0.910200 -0.000000 0.414100
vn 0.647800 -0.316200 -0.693100
vn 0.861500 -0.263900 0.433900
vn 0.920000 0.388500 -0.051900
vn -0.074400 -0.361100 -0.929500
vn 0.664700 0.747100 -0.000000
vn -0.259600 0.545700 0.796800
vn -0.448900 0.893600 -0.000000
vn 0.939700 -0.341900 0.000000
vn -0.000000 0.724500 0.689300
vn -0.707000 0.589600 0.390500
vn 0.000000 0.968600 -0.248500
vn -0.000000 0.208000 0.978100
vn -0.000000 -0.000000 1.000000
vn -0.999100 -0.000000 0.042100
vn 0.809100 0.000000 0.587700
vn 0.000000 -0.707200 0.707000
vn -0.000000 0.515000 0.857200
vn -0.789700 0.564700 0.239800
vn 0.000000 0.803400 -0.595400
vn -0.000000 -0.155100 0.987900
vn -0.353500 0.000000 0.935400
vn 0.749700 0.571700 0.333500
vn -0.993600 0.000000 0.112800
vn 0.276600 0.000000 0.961000
vn -0.492200 0.000000 -0.870500
vn 0.456100 0.672600 -0.582700
vn -1.000000 0.000000 0.007800
vn 0.019200 0.000000 -0.999800
vn -0.295300 0.000000 0.955400
vn -0.543200 0.653600 -0.527000
vn 0.304900 0.000000 0.952400
vn -0.727400 -0.000000 -0.686200
vn -0.897500 0.000000 -0.441000
vn -0.763800 0.580800 0.281600
vn 0.270700 0.000000 -0.962700
vn -0.995000 -0.000000 0.100100
vn 0.921500 -0.388400 0.000000
vn 0.732400 -0.119900 0.670200
vn 0.984900 0.172900 0.000000
vn 0.823100 -0.567900 0.000000
vn 0.837400 0.546600 0.000000
vn 0.198000 0.507400 0.838600
vn -0.700000 0.714200 -0.000000
vn 1.000000 -0.004900 0.000000
vn 0.000000 0.275100 -0.961400
vn 0.697100 0.128400 -0.705400
vn 0.000000 0.994500 0.104600
vn 0.000000 -0.008100 -1.000000
vn -0.208200 0.361300 -0.908900
vn 0.917600 0.318200 -0.238200
vn 0.463600 -0.382800 -0.799100
vn 0.214000 0.277600 -0.936600
vn -0.936700 -0.350200 -0.002100
vn -0.928700 -0.367600 0.049500
vn -0.419000 0.360100 0.833500
vn 0.659500 -0.145500 -0.737500
vn -0.046500 -0.335200 -0.941000
vn -0.902200 0.384200 0.196200
vn 0.568600 0.644400 0.511300
vn 0.705800 0.599900 -0.376800
vn -0.930600 0.346200 0.119100
vn 0.060500 0.276200 0.959200
usemtl Cronos_Material
s off
f 2//1 3//1 4//1
f 8//2 7//2 23//2
f 5//3 6//3 12//3
f 20//4 96//4 94//4
f 28//5 92//5 90//5
f 15//6 67//6 65//6
f 11//7 12//7 10//7
f 10//8 39//8 37//8
f 5//9 11//9 9//9
f 9//10 87//10 85//10
f 13//11 14//11 16//11
f 14//12 4//12 81//12
f 31//13 52//13 50//13
f 4//14 14//14 13//14
f 20//15 64//15 63//15
f 18//16 79//16 77//16
f 6//17 19//17 17//17
f 17//18 35//18 33//18
f 24//19 23//19 22//19
f 22//20 59//20 57//20
f 8//21 24//21 21//21
f 21//22 55//22 53//22
f 25//23 27//23 28//23
f 26//24 75//24 73//24
f 25//25 3//25 69//25
f 3//26 25//26 26//26
f 30//27 29//27 31//27
f 5//28 30//28 32//28
f 15//29 32//29 31//29
f 5//30 1//30 29//30
f 33//31 35//31 43//31
f 18//32 3//32 34//32
f 18//33 36//33 35//33
f 2//34 33//34 34//34
f 38//35 37//35 39//35
f 12//36 6//36 38//36
f 12//37 40//37 39//37
f 6//38 46//38 48//38
f 41//39 43//39 44//39
f 36//40 34//40 42//40
f 36//41 44//41 43//41
f 33//42 41//42 42//42
f 46//43 45//43 47//43
f 37//44 47//44 45//44
f 37//45 38//45 48//45
f 6//46 2//46 45//46
f 50//47 52//47 51//47
f 29//48 1//48 49//48
f 29//49 51//49 52//49
f 13//50 50//50 49//50
f 53//51 55//51 56//51
f 22//52 6//52 54//52
f 22//53 56//53 55//53
f 5//54 53//54 54//54
f 58//55 57//55 59//55
f 23//56 7//56 58//56
f 22//57 23//57 60//57
f 7//58 6//58 57//58
f 63//59 64//59 62//59
f 20//60 18//60 62//60
f 19//61 63//61 61//61
f 18//62 17//62 61//62
f 66//63 65//63 67//63
f 16//64 8//64 66//64
f 15//65 16//65 68//65
f 5//66 65//66 66//66
f 70//67 72//67 71//67
f 27//68 72//68 70//68
f 25//69 71//69 72//69
f 7//70 70//70 69//70
f 74//71 73//71 75//71
f 28//72 8//72 74//72
f 26//73 28//73 76//73
f 8//74 4//74 73//74
f 78//75 77//75 79//75
f 7//76 78//76 80//76
f 18//77 20//77 80//77
f 7//78 3//78 77//78
f 82//79 84//79 83//79
f 8//80 16//80 84//80
f 14//81 83//81 84//81
f 8//82 82//82 81//82
f 86//83 85//83 87//83
f 10//84 2//84 86//84
f 10//85 88//85 87//85
f 2//86 1//86 85//86
f 89//87 90//87 92//87
f 27//88 7//88 89//88
f 28//89 27//89 91//89
f 8//90 90//90 89//90
f 93//91 94//91 96//91
f 19//92 6//92 93//92
f 19//93 95//93 96//93
f 6//94 7//94 94//94
f 1//1 2//1 4//1
f 24//2 8//2 23//2
f 11//3 5//3 12//3
f 7//4 20//4 94//4
f 8//95 28//95 90//95
f 5//96 15//96 65//96
f 9//7 11//7 10//7
f 2//8 10//8 37//8
f 1//9 5//9 9//9
f 1//10 9//10 85//10
f 15//11 13//11 16//11
f 83//97 14//97 81//97
f 13//98 31//98 50//98
f 1//14 4//14 13//14
f 19//15 20//15 63//15
f 3//16 18//16 77//16
f 2//17 6//17 17//17
f 2//18 17//18 33//18
f 21//19 24//19 22//19
f 6//20 22//20 57//20
f 5//21 8//21 21//21
f 5//22 21//22 53//22
f 26//23 25//23 28//23
f 4//99 26//99 73//99
f 71//100 25//100 69//100
f 4//26 3//26 26//26
f 32//27 30//27 31//27
f 15//101 5//101 32//101
f 13//29 15//29 31//29
f 30//30 5//30 29//30
f 41//31 33//31 43//31
f 36//32 18//32 34//32
f 17//33 18//33 35//33
f 3//34 2//34 34//34
f 40//35 38//35 39//35
f 40//36 12//36 38//36
f 10//37 12//37 39//37
f 38//38 6//38 48//38
f 42//39 41//39 44//39
f 44//40 36//40 42//40
f 35//41 36//41 43//41
f 34//42 33//42 42//42
f 48//43 46//43 47//43
f 2//44 37//44 45//44
f 47//45 37//45 48//45
f 46//46 6//46 45//46
f 49//102 50//102 51//102
f 51//48 29//48 49//48
f 31//49 29//49 52//49
f 1//103 13//103 49//103
f 54//51 53//51 56//51
f 56//52 22//52 54//52
f 21//53 22//53 55//53
f 6//54 5//54 54//54
f 60//55 58//55 59//55
f 60//56 23//56 58//56
f 59//57 22//57 60//57
f 58//58 7//58 57//58
f 61//59 63//59 62//59
f 64//60 20//60 62//60
f 17//61 19//61 61//61
f 62//62 18//62 61//62
f 68//63 66//63 67//63
f 68//104 16//104 66//104
f 67//65 15//65 68//65
f 8//66 5//66 66//66
f 69//67 70//67 71//67
f 7//105 27//105 70//105
f 27//69 25//69 72//69
f 3//70 7//70 69//70
f 76//71 74//71 75//71
f 76//106 28//106 74//106
f 75//73 26//73 76//73
f 74//74 8//74 73//74
f 80//75 78//75 79//75
f 20//76 7//76 80//76
f 79//77 18//77 80//77
f 78//78 7//78 77//78
f 81//79 82//79 83//79
f 82//107 8//107 84//107
f 16//81 14//81 84//81
f 4//82 8//82 81//82
f 88//83 86//83 87//83
f 88//84 10//84 86//84
f 9//85 10//85 87//85
f 86//86 2//86 85//86
f 91//87 89//87 92//87
f 91//108 27//108 89//108
f 92//89 28//89 91//89
f 7//90 8//90 89//90
f 95//91 93//91 96//91
f 95//92 19//92 93//92
f 20//93 19//93 96//93
f 93//94 6//94 94//94
