# Blender v2.73 (sub 0) OBJ File: 'cronos_new.blend'
# www.blender.org
mtllib cronos_new.mtl
o Cube
v 1.000000 -1.000000 -1.000000
v 1.000000 -1.000000 1.000000
v -1.000000 -1.000000 1.000000
v -1.000000 -1.000000 -1.000000
v 1.000000 1.000000 -0.999999
v 0.999999 1.000000 1.000001
v -1.000000 1.000000 1.000000
v -1.000000 1.000000 -1.000000
v 1.914394 1.169126 -0.388811
v 1.914394 1.169126 0.388812
v 1.914394 1.946749 -0.388810
v 1.914394 1.946749 0.388812
v 0.354665 1.483213 -1.852559
v -0.384695 1.483213 -1.852560
v 0.354665 2.222573 -1.852559
v -0.384695 2.222573 -1.852559
v 1.139312 1.407247 1.378376
v 0.224085 1.407247 1.378376
v 1.139312 2.322474 1.378377
v 0.224085 2.322474 1.378376
v -0.244719 2.107422 -0.638777
v -0.244720 2.107422 -0.164054
v -0.719442 2.107422 -0.164054
v -0.719442 2.107422 -0.638777
v -1.986461 1.633966 0.434887
v -1.986461 1.633966 -0.249923
v -1.986461 2.318776 0.434887
v -1.986461 2.318776 -0.249923
v 1.689480 1.464887 -0.869763
v 1.689480 1.903601 -0.869763
v 1.392073 2.093601 -1.434593
v 1.392073 2.462024 -1.434592
v 0.726607 0.255420 1.602286
v -0.135583 0.255420 1.602286
v 0.786664 1.293172 1.765402
v 0.392114 1.293172 1.765402
v 2.142745 0.983468 1.111402
v 2.142745 1.548057 1.111403
v 2.400873 1.595801 0.938867
v 2.400873 1.815319 0.938867
v 0.591581 0.454380 1.943879
v 0.139088 0.454380 1.943879
v 0.623099 0.999011 2.029486
v 0.416033 0.999011 2.029486
v 1.236472 -0.187130 1.519745
v 1.236472 0.817243 1.519745
v 1.810344 0.808941 1.575690
v 1.810343 1.092470 1.575690
v 1.634113 0.273047 -1.484745
v 1.497600 0.968460 -1.744008
v 1.843784 1.022620 -1.445140
v 1.753343 1.213812 -1.616904
v 1.446636 2.227651 -0.537196
v 1.446636 2.227651 0.304771
v 0.922630 2.693857 -0.385127
v 0.922630 2.693857 -0.185276
v 0.284001 1.913748 0.805689
v -0.345371 1.913748 0.805689
v -0.107695 2.262239 0.439377
v -0.257083 2.262239 0.439377
v 0.764695 1.922774 1.894093
v 0.245827 1.922774 1.894093
v 0.764695 2.441643 1.894093
v 0.245827 2.441643 1.894093
v 0.716945 1.924874 -0.854755
v -0.294520 1.924874 -0.854756
v 0.489917 2.642508 -1.285923
v -0.082679 2.642508 -1.285923
v -1.621960 0.813453 1.179019
v -1.621960 1.406703 1.179019
v -1.914569 1.537707 1.068439
v -1.914569 1.854931 1.068439
v -1.622292 0.664542 -1.011978
v -1.622292 1.411617 -1.011978
v -1.990773 1.576590 -0.803633
v -1.990773 1.976067 -0.803633
v -1.430097 -0.163549 1.455918
v -1.430097 1.010116 1.455918
v -0.711764 1.249102 1.677962
v -0.711764 1.786187 1.677962
v -1.065863 0.244669 -1.654363
v -1.065863 1.048011 -1.654363
v -0.897612 1.163205 -1.996811
v -0.897612 1.617981 -1.996811
v 1.605326 -0.122700 -0.331995
v 1.605326 -0.122700 0.495459
v 1.983636 0.774725 -0.079129
v 1.983636 0.774725 0.242594
v -0.996215 1.778882 0.527824
v -0.996215 1.778882 -0.691291
v -1.597520 2.699980 0.300584
v -1.597520 2.699980 -0.351304
v 0.892008 1.561326 0.995461
v -0.284594 1.561326 0.995460
v 0.973966 2.339339 1.218060
v 0.435537 2.339339 1.218060
vt 0.213182 0.037513
vt 0.037513 0.000665
vt 0.000665 0.176333
vt 0.809751 0.853814
vt 0.809751 0.674322
vt 0.710365 0.778791
vt 0.408803 0.085631
vt 0.588295 0.085631
vt 0.533444 0.000665
vt 0.982371 0.115650
vt 0.963020 0.129531
vt 0.963020 0.061885
vt 0.310928 0.788752
vt 0.262485 0.782264
vt 0.268787 0.880783
vt 0.911919 0.134429
vt 0.848649 0.136254
vt 0.853748 0.061292
vt 0.463655 0.000665
vt 0.533444 0.070453
vt 0.809751 0.649524
vt 0.751851 0.672993
vt 0.751851 0.615899
vt 0.802737 0.335773
vt 0.845351 0.445944
vt 0.872460 0.381636
vt 0.938532 0.170376
vt 0.974883 0.196908
vt 0.974883 0.280584
vt 0.307699 0.234098
vt 0.266625 0.181984
vt 0.214511 0.223057
vt 0.407474 0.000665
vt 0.316084 0.065167
vt 0.322306 0.341129
vt 0.404388 0.317719
vt 0.407474 0.286063
vt 0.008958 0.405782
vt 0.073900 0.419404
vt 0.502699 0.990201
vt 0.456416 0.988249
vt 0.456416 0.941683
vt 0.131629 0.643744
vt 0.200061 0.694465
vt 0.200061 0.836694
vt 0.811080 0.569793
vt 0.826197 0.447273
vt 0.838951 0.528415
vt 0.874853 0.533135
vt 0.874853 0.627413
vt 0.130300 0.791114
vt 0.087695 0.791114
vt 0.087695 0.748509
vt 0.992609 0.892630
vt 0.945215 0.862971
vt 0.945215 0.817595
vt 0.152681 0.422839
vt 0.053295 0.448018
vt 0.053295 0.490623
vt 0.000665 0.595388
vt 0.042505 0.642415
vt 0.466756 0.489192
vt 0.431511 0.539541
vt 0.481860 0.574786
vt 0.324982 0.600114
vt 0.374712 0.595323
vt 0.393998 0.513607
vt 0.560768 0.266452
vt 0.454274 0.390569
vt 0.214511 0.362925
vt 0.263525 0.599672
vt 0.682024 0.740850
vt 0.708337 0.711561
vt 0.708337 0.787412
vt 0.377608 0.252741
vt 0.352220 0.351537
vt 0.296337 0.361596
vt 0.255584 0.275172
vt 0.876182 0.620130
vt 0.924534 0.447273
vt 0.924534 0.676978
vt 0.708337 0.813337
vt 0.708337 0.907615
vt 0.680825 0.885216
vt 0.937203 0.389069
vt 0.937203 0.170376
vt 0.901301 0.290071
vt 0.708337 0.710232
vt 0.673603 0.695152
vt 0.673603 0.659743
vt 0.214511 0.601443
vt 0.327180 0.625979
vt 0.327180 0.703357
vt 0.048277 0.939328
vt 0.067959 0.892637
vt 0.067959 0.952275
vt 0.613917 0.907623
vt 0.613917 0.808915
vt 0.679220 0.888623
vt 0.582809 0.012460
vt 0.582809 0.032161
vt 0.925863 0.629002
vt 0.970229 0.654650
vt 0.970229 0.706397
vt 0.654459 0.920163
vt 0.654459 0.969123
vt 0.635907 0.968050
vt 0.901301 0.384349
vt 0.873789 0.312471
vt 0.530333 0.703006
vt 0.556733 0.705153
vt 0.556733 0.723736
vt 0.209898 0.887441
vt 0.179241 0.899559
vt 0.179241 0.940168
vt 0.082983 0.870546
vt 0.127981 0.792443
vt 0.127981 0.895611
vt 0.715993 0.589522
vt 0.745069 0.504841
vt 0.369629 0.907249
vt 0.405795 0.871761
vt 0.405795 0.930139
vt 0.261156 0.961756
vt 0.261156 0.782264
vt 0.214511 0.855216
vt 0.183773 0.395248
vt 0.201715 0.421510
vt 0.213182 0.406383
vt 0.943886 0.748437
vt 0.943886 0.969960
vt 0.894415 0.858163
vt 0.589624 0.181486
vt 0.654563 0.186469
vt 0.654563 0.209535
vt 0.208576 0.336682
vt 0.992243 0.969522
vt 0.945215 0.955875
vt 0.945215 0.937939
vt 0.847320 0.000665
vt 0.847320 0.150185
vt 0.738362 0.106898
vt 0.089600 0.643744
vt 0.107535 0.643744
vt 0.562097 0.628094
vt 0.672274 0.669629
vt 0.672274 0.745192
vt 0.000665 0.757542
vt 0.000665 0.701059
vt 0.033540 0.736212
vt 0.757758 0.999336
vt 0.757758 0.855143
vt 0.710365 0.924301
vt 0.033540 0.749619
vt 0.811080 0.927929
vt 0.811080 0.748437
vt 0.893085 0.812695
vt 0.873789 0.390398
vt 0.920355 0.390398
vt 0.920355 0.436965
vt 0.177912 0.969579
vt 0.177912 0.887441
vt 0.131629 0.933707
vt 0.000665 0.903332
vt 0.046948 0.892637
vt 0.046948 0.939204
vt 0.455087 0.990201
vt 0.455087 0.908063
vt 0.408803 0.941683
vt 0.654029 0.063979
vt 0.654029 0.154753
vt 0.589624 0.134379
vt 0.413175 0.805357
vt 0.505784 0.901879
vt 0.505784 0.817858
vt 0.706746 0.193624
vt 0.706746 0.259979
vt 0.655892 0.232874
vt 0.737033 0.180157
vt 0.369467 0.648014
vt 0.381257 0.601443
vt 0.390493 0.628373
vt 0.805217 0.957172
vt 0.759088 0.923310
vt 0.763530 0.895590
vt 0.425130 0.449509
vt 0.408803 0.472832
vt 0.328509 0.700648
vt 0.386739 0.698376
vt 0.530333 0.637129
vt 0.548468 0.701677
vt 0.558165 0.613931
vt 0.368300 0.871761
vt 0.368300 0.982978
vt 0.333641 0.939172
vt 0.517105 0.524437
vt 0.540208 0.578087
vt 0.209859 0.602331
vt 0.209859 0.422839
vt 0.154010 0.572225
vt 0.507113 0.854127
vt 0.554857 0.760237
vt 0.554857 0.902466
vt 0.612588 0.923901
vt 0.562097 0.948695
vt 0.562097 0.881218
vt 0.081654 0.877622
vt 0.000665 0.891308
vt 0.034127 0.800474
vt 0.966780 0.626765
vt 0.966780 0.447273
vt 0.925863 0.522342
vt 0.776222 0.387278
vt 0.787150 0.445944
vt 0.801408 0.407701
vt 0.408803 0.860969
vt 0.260687 0.128053
vt 0.228632 0.153317
vt 0.722701 0.362726
vt 0.801408 0.319724
vt 0.640831 0.400664
vt 0.640831 0.326403
vt 0.721372 0.349097
vt 0.588295 0.265123
vt 0.543015 0.186389
vt 0.520321 0.105849
vt 0.491448 0.105849
vt 0.562097 0.445944
vt 0.562097 0.266452
vt 0.644762 0.489649
vt 0.644762 0.599060
vt 0.562097 0.568547
vt 0.961691 0.007152
vt 0.961691 0.154954
vt 0.919550 0.099183
vt 0.973438 0.383054
vt 0.973438 0.444513
vt 0.938532 0.432460
vt 0.714664 0.626765
vt 0.478627 0.749216
vt 0.478627 0.643620
vt 0.408803 0.708249
vt 0.406738 0.720787
vt 0.406738 0.601443
vt 0.391822 0.650527
vt 0.406209 0.804254
vt 0.391822 0.789415
vt 0.391822 0.741093
vt 0.529004 0.758908
vt 0.529004 0.579416
vt 0.176333 0.213182
vt 0.710365 0.821396
vt 0.982371 0.000665
vt 0.310928 0.936554
vt 0.911919 0.000665
vt 0.463655 0.070453
vt 0.809751 0.447273
vt 0.872460 0.170376
vt 0.938532 0.372627
vt 0.502699 0.908063
vt 0.131629 0.886112
vt 0.838951 0.747108
vt 0.130300 0.748509
vt 0.992609 0.748437
vt 0.152681 0.602331
vt 0.393998 0.364217
vt 0.686240 0.812008
vt 0.913928 0.714896
vt 0.680825 0.835737
vt 0.708337 0.628094
vt 0.214511 0.780935
vt 0.060307 0.970429
vt 0.679220 0.916488
vt 0.925863 0.732045
vt 0.613917 0.917817
vt 0.873789 0.361949
vt 0.530333 0.738416
vt 0.209898 0.964819
vt 0.115279 0.917659
vt 0.387633 0.947960
vt 0.214511 0.945355
vt 0.894415 0.790798
vt 0.589624 0.257336
vt 0.992243 0.893959
vt 0.738362 0.043952
vt 0.562097 0.807586
vt 0.710365 0.969676
vt 0.893085 0.869179
vt 0.873789 0.436965
vt 0.131629 0.980274
vt 0.000665 0.985470
vt 0.408803 0.988250
vt 0.589624 0.082990
vt 0.457566 0.760237
vt 0.655892 0.181486
vt 0.737033 0.000665
vt 0.805217 0.855143
vt 0.386739 0.870432
vt 0.548468 0.579416
vt 0.328509 0.901531
vt 0.560768 0.548716
vt 0.154010 0.639272
vt 0.533009 0.945431
vt 0.612588 0.808915
vt 0.081654 0.792443
vt 0.925863 0.627673
vt 0.447101 0.906734
vt 0.785403 0.194542
vt 0.721372 0.377970
vt 0.562097 0.510043
vt 0.913248 0.000665
vt 0.938532 0.373956
vt 0.714664 0.447273
vt 0.408803 0.756571
vt 0.391822 0.720737
vt 0.406209 0.722116
vn 0.000000 -1.000000 0.000000
vn -0.969400 0.245600 -0.000000
vn -0.719300 0.694700 -0.000000
vn -0.499600 0.632000 -0.592500
vn -0.352600 0.112700 -0.929000
vn 0.944300 0.113000 -0.309100
vn 1.000000 0.000000 0.000000
vn 0.813200 -0.447600 -0.372000
vn 0.555700 -0.000000 -0.831400
vn 0.850400 -0.224400 -0.475900
vn 0.000000 0.000000 -1.000000
vn 0.477800 -0.388800 -0.787700
vn 0.201000 0.277200 -0.939500
vn 0.000000 -0.324700 -0.945800
vn 0.000000 0.974300 -0.225100
vn 0.337000 -0.311100 0.888600
vn 0.938400 0.000000 -0.345500
vn 0.752300 -0.144600 0.642800
vn 0.000000 1.000000 0.000000
vn 0.778300 0.542700 -0.315900
vn 0.000000 0.310100 -0.950700
vn 0.032100 0.342300 -0.939000
vn -1.000000 0.000000 -0.000000
vn -0.922400 -0.383400 0.046900
vn -0.938800 -0.331300 0.094500
vn -0.936500 -0.350700 -0.000000
vn 0.884800 0.000000 -0.465900
vn -0.618000 0.371700 0.692800
vn 0.373700 0.000000 -0.927500
vn -0.185600 -0.000000 0.982600
vn 0.897900 -0.118600 0.424000
vn -0.819600 0.344900 0.457500
vn 0.000000 0.959200 0.282700
vn -0.000000 -0.432500 0.901600
vn 0.555700 -0.000000 0.831400
vn -0.406900 0.739300 0.536500
vn 0.749100 0.000000 -0.662500
vn -0.419300 0.779800 0.465000
vn 0.000000 -0.155300 0.987900
vn -0.819400 0.344600 0.458100
vn 0.000000 0.668000 0.744100
vn -0.000000 -0.864100 0.503300
vn -0.097000 -0.000000 0.995300
vn 0.789700 -0.476700 0.386200
vn 0.813100 -0.000000 0.582100
vn -0.910200 -0.000000 0.414100
vn 0.647800 -0.316200 -0.693100
vn 0.861500 -0.263900 0.433900
vn 0.920000 0.388500 -0.051900
vn -0.074400 -0.361100 -0.929500
vn 0.664700 0.747100 -0.000000
vn -0.259600 0.545700 0.796800
vn -0.448900 0.893600 -0.000000
vn 0.939700 -0.341900 0.000000
vn -0.000000 0.724500 0.689300
vn -0.707000 0.589600 0.390500
vn 0.000000 0.968600 -0.248500
vn -0.000000 0.208000 0.978100
vn -0.000000 -0.000000 1.000000
vn -0.999100 -0.000000 0.042100
vn 0.809100 0.000000 0.587700
vn 0.000000 -0.707200 0.707000
vn -0.000000 0.515000 0.857200
vn -0.789700 0.564700 0.239800
vn 0.000000 0.803400 -0.595400
vn -0.000000 -0.155100 0.987900
vn -0.353500 0.000000 0.935400
vn 0.749700 0.571700 0.333500
vn -0.993600 0.000000 0.112800
vn 0.276600 0.000000 0.961000
vn -0.492200 0.000000 -0.870500
vn 0.456100 0.672600 -0.582700
vn -1.000000 0.000000 0.007800
vn 0.019200 0.000000 -0.999800
vn -0.295300 0.000000 0.955400
vn -0.543200 0.653600 -0.527000
vn 0.304900 0.000000 0.952400
vn -0.727400 -0.000000 -0.686200
vn -0.897500 0.000000 -0.441000
vn -0.763800 0.580800 0.281600
vn 0.270700 0.000000 -0.962700
vn -0.995000 -0.000000 0.100100
vn 0.921500 -0.388400 0.000000
vn 0.732400 -0.119900 0.670200
vn 0.984900 0.172900 0.000000
vn 0.823100 -0.567900 0.000000
vn 0.837400 0.546600 0.000000
vn 0.198000 0.507400 0.838600
vn -0.700000 0.714200 -0.000000
vn 1.000000 -0.004900 0.000000
vn 0.000000 0.275100 -0.961400
vn 0.697100 0.128400 -0.705400
vn 0.000000 0.994500 0.104600
vn 0.000000 -0.008100 -1.000000
vn -0.208200 0.361300 -0.908900
vn 0.917600 0.318200 -0.238200
vn 0.463600 -0.382800 -0.799100
vn 0.214000 0.277600 -0.936600
vn -0.936700 -0.350200 -0.002100
vn -0.928700 -0.367600 0.049500
vn -0.419000 0.360100 0.833500
vn 0.659500 -0.145500 -0.737500
vn -0.046500 -0.335200 -0.941000
vn -0.902200 0.384200 0.196200
vn 0.568600 0.644400 0.511300
vn 0.705800 0.599900 -0.376800
vn -0.930600 0.346200 0.119100
vn 0.060500 0.276200 0.959200
usemtl Cronos_Material
s off
f 2/1/1 3/2/1 4/3/1
f 8/4/2 7/5/2 23/6/2
f 5/7/3 6/8/3 12/9/3
f 20/10/4 96/11/4 94/12/4
f 28/13/5 92/14/5 90/15/5
f 15/16/6 67/17/6 65/18/6
f 11/19/7 12/9/7 10/20/7
f 10/21/8 39/22/8 37/23/8
f 5/24/9 11/25/9 9/26/9
f 9/27/10 87/28/10 85/29/10
f 13/30/11 14/31/11 16/32/11
f 14/31/12 4/33/12 81/34/12
f 31/35/13 52/36/13 50/37/13
f 4/3/14 14/38/14 13/39/14
f 20/40/15 64/41/15 63/42/15
f 18/43/16 79/44/16 77/45/16
f 6/46/17 19/47/17 17/48/17
f 17/48/18 35/49/18 33/50/18
f 24/51/19 23/52/19 22/53/19
f 22/54/20 59/55/20 57/56/20
f 8/57/21 24/58/21 21/59/21
f 21/59/22 55/60/22 53/61/22
f 25/62/23 27/63/23 28/64/23
f 26/65/24 75/66/24 73/67/24
f 25/62/25 3/68/25 69/69/25
f 3/70/26 25/71/26 26/65/26
f 30/72/27 29/73/27 31/74/27
f 5/75/28 30/76/28 32/77/28
f 15/78/29 32/77/29 31/35/29
f 5/79/30 1/80/30 29/81/30
f 33/82/31 35/83/31 43/84/31
f 18/85/32 3/86/32 34/87/32
f 18/88/33 36/89/33 35/90/33
f 2/91/34 33/92/34 34/93/34
f 38/94/35 37/95/35 39/96/35
f 12/97/36 6/98/36 38/99/36
f 12/9/37 40/100/37 39/101/37
f 6/102/38 46/103/38 48/104/38
f 41/105/39 43/106/39 44/107/39
f 36/108/40 34/87/40 42/109/40
f 36/110/41 44/111/41 43/112/41
f 33/113/42 41/114/42 42/115/42
f 46/116/43 45/117/43 47/118/43
f 37/23/44 47/119/44 45/120/44
f 37/121/45 38/122/45 48/123/45
f 6/124/46 2/125/46 45/126/46
f 50/127/47 52/128/47 51/129/47
f 29/130/48 1/131/48 49/132/48
f 29/133/49 51/134/49 52/135/49
f 13/39/50 50/127/50 49/136/50
f 53/137/51 55/138/51 56/139/51
f 22/140/52 6/141/52 54/142/52
f 22/53/53 56/143/53 55/144/53
f 5/145/54 53/146/54 54/147/54
f 58/148/55 57/149/55 59/150/55
f 23/151/56 7/152/56 58/153/56
f 22/53/57 23/52/57 60/154/57
f 7/155/58 6/156/58 57/157/58
f 63/158/59 64/159/59 62/160/59
f 20/161/60 18/162/60 62/163/60
f 19/164/61 63/165/61 61/166/61
f 18/167/62 17/168/62 61/169/62
f 66/170/63 65/171/63 67/172/63
f 16/173/64 8/174/64 66/175/64
f 15/176/65 16/177/65 68/178/65
f 5/179/66 65/171/66 66/170/66
f 70/180/67 72/181/67 71/182/67
f 27/183/68 72/184/68 70/185/68
f 25/62/69 71/186/69 72/187/69
f 7/188/70 70/180/70 69/189/70
f 74/190/71 73/191/71 75/192/71
f 28/193/72 8/194/72 74/195/72
f 26/196/73 28/64/73 76/197/73
f 8/198/74 4/199/74 73/200/74
f 78/201/75 77/202/75 79/203/75
f 7/204/76 78/205/76 80/206/76
f 18/207/77 20/208/77 80/209/77
f 7/210/78 3/211/78 77/212/78
f 82/213/79 84/214/79 83/215/79
f 8/174/80 16/173/80 84/216/80
f 14/31/81 83/217/81 84/218/81
f 8/219/82 82/213/82 81/220/82
f 86/221/83 85/222/83 87/223/83
f 10/20/84 2/224/84 86/225/84
f 10/20/85 88/226/85 87/227/85
f 2/228/86 1/229/86 85/222/86
f 89/230/87 90/231/87 92/232/87
f 27/233/88 7/234/88 89/235/88
f 28/236/89 27/237/89 91/238/89
f 8/239/90 90/231/90 89/230/90
f 93/240/91 94/241/91 96/242/91
f 19/243/92 6/244/92 93/245/92
f 19/246/93 95/247/93 96/248/93
f 6/249/94 7/250/94 94/241/94
f 1/251/1 2/1/1 4/3/1
f 24/252/2 8/4/2 23/6/2
f 11/19/3 5/7/3 12/9/3
f 7/253/4 20/10/4 94/12/4
f 8/254/95 28/13/95 90/15/95
f 5/255/96 15/16/96 65/18/96
f 9/256/7 11/19/7 10/20/7
f 2/257/8 10/21/8 37/23/8
f 1/258/9 5/24/9 9/26/9
f 1/259/10 9/27/10 85/29/10
f 15/78/11 13/30/11 16/32/11
f 83/217/97 14/31/97 81/34/97
f 13/30/98 31/35/98 50/37/98
f 1/251/14 4/3/14 13/39/14
f 19/260/15 20/40/15 63/42/15
f 3/261/16 18/43/16 77/45/16
f 2/262/17 6/46/17 17/48/17
f 2/262/18 17/48/18 33/50/18
f 21/263/19 24/51/19 22/53/19
f 6/264/20 22/54/20 57/56/20
f 5/265/21 8/57/21 21/59/21
f 5/265/22 21/59/22 53/61/22
f 26/196/23 25/62/23 28/64/23
f 4/266/99 26/65/99 73/67/99
f 71/186/100 25/62/100 69/69/100
f 4/266/26 3/70/26 26/65/26
f 32/267/27 30/72/27 31/74/27
f 15/78/101 5/75/101 32/77/101
f 13/30/29 15/78/29 31/35/29
f 30/268/30 5/79/30 29/81/30
f 41/269/31 33/82/31 43/84/31
f 36/108/32 18/85/32 34/87/32
f 17/270/33 18/88/33 35/90/33
f 3/271/34 2/91/34 34/93/34
f 40/272/35 38/94/35 39/96/35
f 40/273/36 12/97/36 38/99/36
f 10/20/37 12/9/37 39/101/37
f 38/274/38 6/102/38 48/104/38
f 42/275/39 41/105/39 44/107/39
f 44/276/40 36/108/40 42/109/40
f 35/277/41 36/110/41 43/112/41
f 34/278/42 33/113/42 42/115/42
f 48/279/43 46/116/43 47/118/43
f 2/257/44 37/23/44 45/120/44
f 47/280/45 37/121/45 48/123/45
f 46/281/46 6/124/46 45/126/46
f 49/136/102 50/127/102 51/129/102
f 51/282/48 29/130/48 49/132/48
f 31/283/49 29/133/49 52/135/49
f 1/251/103 13/39/103 49/136/103
f 54/284/51 53/137/51 56/139/51
f 56/285/52 22/140/52 54/142/52
f 21/263/53 22/53/53 55/144/53
f 6/286/54 5/145/54 54/147/54
f 60/154/55 58/148/55 59/150/55
f 60/287/56 23/151/56 58/153/56
f 59/150/57 22/53/57 60/154/57
f 58/288/58 7/155/58 57/157/58
f 61/289/59 63/158/59 62/160/59
f 64/290/60 20/161/60 62/163/60
f 17/291/61 19/164/61 61/166/61
f 62/292/62 18/167/62 61/169/62
f 68/293/63 66/170/63 67/172/63
f 68/294/104 16/173/104 66/175/104
f 67/295/65 15/176/65 68/178/65
f 8/296/66 5/179/66 66/170/66
f 69/189/67 70/180/67 71/182/67
f 7/297/105 27/183/105 70/185/105
f 27/63/69 25/62/69 72/187/69
f 3/298/70 7/188/70 69/189/70
f 76/299/71 74/190/71 75/192/71
f 76/300/106 28/193/106 74/195/106
f 75/301/73 26/196/73 76/197/73
f 74/302/74 8/198/74 73/200/74
f 80/303/75 78/201/75 79/203/75
f 20/304/76 7/204/76 80/206/76
f 79/305/77 18/207/77 80/209/77
f 78/306/78 7/210/78 77/212/78
f 81/220/79 82/213/79 83/215/79
f 82/307/107 8/174/107 84/216/107
f 16/32/81 14/31/81 84/218/81
f 4/308/82 8/219/82 81/220/82
f 88/309/83 86/221/83 87/223/83
f 88/226/84 10/20/84 86/225/84
f 9/256/85 10/20/85 87/227/85
f 86/221/86 2/228/86 85/222/86
f 91/310/87 89/230/87 92/232/87
f 91/311/108 27/233/108 89/235/108
f 92/312/89 28/236/89 91/238/89
f 7/313/90 8/239/90 89/230/90
f 95/314/91 93/240/91 96/242/91
f 95/315/92 19/243/92 93/245/92
f 20/316/93 19/246/93 96/248/93
f 93/240/94 6/249/94 94/241/94
